<?xml version="1.0" encoding="UTF-8"?>
<svg width="1216" height="198" viewBox="0 0 1216 198" xmlns="http://www.w3.org/2000/svg">
  <path id="9" d="M 10.420,193.855 C 9.276,193.300 7.589,191.574 6.670,190.019 C 5.157,187.457 5,181.208 5,123.561 C 5,53.408 4.738,56.333 11.215,54.075 C 15.530,52.571 25.431,52.736 29.359,54.377 C 31.171,55.134 33.563,57.002 38.934,59.066 C 41.936,56.064 50.257,52.300 57,50.893 C 64.553,49.317 80.033,50.341 87.320,52.898 C 103.435,58.553 117.273,71.762 123.142,87.090 C 125.763,93.935 126.754,110.100 125.053,118.263 C 121.046,137.498 104.763,154.254 84.955,159.525 C 76.548,161.762 60.290,161.456 52.759,158.919 C 49.361,157.774 45.368,155.974 43.886,154.919 C 42.404,153.864 40.960,153 40.678,153 C 40.396,153 40.016,160.762 39.833,170.250 C 39.468,189.199 39.017,190.815 33.358,193.500 C 29.708,195.232 13.766,195.479 10.420,193.855M 76.402,131.951 C 88.054,127.591 94.455,114.659 91.937,100.562 C 88.780,82.888 73.507,73.225 56.616,78.216 C 50.639,79.982 42.780,88.135 40.533,94.900 C 37.852,102.971 38.252,112.952 41.524,119.639 C 44.394,125.504 49.860,130.721 55.137,132.631 C 60.509,134.575 70.219,134.265 76.402,131.951" stroke="#48A420" fill="#48A420" stroke-width="1"/>
  <path id="9" d="M 510.251,160.891 C 498.304,158.900 486.200,152.223 477.496,142.822 C 467.127,131.622 462.355,118.202 463.336,103 C 464.789,80.479 478.293,62.124 499.457,53.905 C 506.080,51.333 509.266,50.730 518.457,50.306 C 538.955,49.361 553.717,54.621 566.533,67.437 C 583.676,84.580 587.714,108.108 577.271,130 C 566.427,152.732 538.508,165.600 510.251,160.891M 531.225,132.954 C 537.285,131.271 543.165,126.062 546.464,119.452 C 553.761,104.832 547.561,85.437 533.500,78.903 C 528.925,76.777 520.038,76.415 514.899,78.145 C 501.815,82.551 494.303,99.133 498.450,114.454 C 502.430,129.159 516.432,137.062 531.225,132.954" stroke="#48A420" fill="#48A420" stroke-width="1"/>
  <path id="9" d="M 979.500,160.351 C 951.490,154.407 933.124,130.176 935.324,102.069 C 937.251,77.452 955.567,56.589 979.754,51.464 C 994.384,48.364 1010.956,50.416 1023.847,56.923 C 1036.237,63.178 1048.651,77.952 1052.422,90.932 C 1054.522,98.161 1054.505,113.938 1052.388,121.068 C 1046.314,141.528 1030.226,156.053 1008.792,160.427 C 999.362,162.351 988.796,162.324 979.500,160.351M 1004.056,132.480 C 1010.305,130.275 1014.154,126.958 1017.526,120.870 C 1020.241,115.968 1020.499,114.672 1020.495,106 C 1020.491,97.645 1020.170,95.897 1017.834,91.500 C 1012.563,81.577 1005.033,76.979 994.124,77.022 C 980.371,77.076 969.585,88.293 968.330,103.848 C 967.234,117.434 974.862,129.376 986.994,133.066 C 991.247,134.360 999.536,134.075 1004.056,132.480" stroke="#48A420" fill="#48A420" stroke-width="1"/>
  <path id="9" d="M 638.142,160.940 C 611.529,156.197 592.017,133.374 592.027,107 C 592.033,91.724 597.754,77.486 608.117,66.961 C 618.472,56.444 629.715,51.213 643.940,50.291 C 656.163,49.499 665.645,52.063 674.750,58.623 C 674.750,58.623 677,60.244 677,60.244 C 677,60.244 677.015,41.872 677.015,41.872 C 677.025,29.298 677.420,22.733 678.265,21.068 C 679.707,18.228 686.315,14.154 697.386,9.277 C 703.921,6.399 705.677,5.987 707.636,6.880 C 707.636,6.880 710,7.957 710,7.957 C 710,7.957 710,80.423 710,80.423 C 710,80.423 710,152.888 710,152.888 C 710,152.888 707.588,155.694 707.588,155.694 C 705.315,158.338 704.636,158.519 695.835,158.838 C 687.484,159.140 686.203,158.948 683.747,157.016 C 682.236,155.828 681,154.239 681,153.486 C 681,150.788 679.114,151.058 674.021,154.486 C 671.175,156.401 666.518,158.666 663.673,159.520 C 657.074,161.500 645.038,162.169 638.142,160.940M 664.500,131.237 C 669.165,128.832 674.001,123.956 676.638,119 C 679.489,113.642 679.287,97.984 676.295,92.384 C 670.693,81.899 663.063,77.027 652.218,77.010 C 648.763,77.005 644.455,77.619 642.645,78.375 C 637.936,80.343 632.355,85.541 629.212,90.887 C 626.751,95.073 626.500,96.426 626.500,105.500 C 626.500,113.396 626.910,116.325 628.446,119.422 C 631.130,124.833 637.055,130.161 642.735,132.270 C 648.934,134.572 658.954,134.096 664.500,131.237" stroke="#48A420" fill="#48A420" stroke-width="1"/>
  <path id="9" d="M 180.500,160.387 C 164.583,157.091 149.528,146.278 142.721,133.252 C 137.540,123.338 135.996,117.068 136.026,106.068 C 136.069,90.012 141.902,76.977 154.129,65.612 C 162.279,58.036 168.533,54.549 178.585,51.978 C 204.222,45.421 231.079,54.909 245.165,75.500 C 271.032,113.311 242.584,162.308 195,161.901 C 190.875,161.866 184.350,161.184 180.500,160.387M 204.345,132.398 C 226.241,124.937 227.023,88.702 205.500,78.871 C 199.845,76.288 189.896,76.388 184.327,79.084 C 181.960,80.230 178.242,83.190 176.065,85.663 C 163.038,100.463 167.733,124.913 185.044,132.423 C 189.606,134.402 198.498,134.390 204.345,132.398" stroke="#48A420" fill="#48A420" stroke-width="1"/>
  <path id="9" d="M 768,160.440 C 742.403,154.923 723.961,132.323 724.015,106.540 C 724.066,82.244 738.927,61.473 762.119,53.285 C 767.824,51.271 771.997,50.581 780.500,50.248 C 801.115,49.440 815.787,54.691 828.533,67.437 C 846.187,85.091 849.639,109.708 837.655,132.500 C 830.708,145.712 814.796,157.091 798.500,160.501 C 789.821,162.317 776.584,162.290 768,160.440M 796.643,131.193 C 811.344,123.657 815.488,102.629 805.182,87.877 C 800.054,80.537 793.193,77 784.082,77 C 768.121,77 757.473,88.626 757.521,106 C 757.559,119.660 764.065,129.214 775.994,133.125 C 780.460,134.589 792.151,133.496 796.643,131.193" stroke="#48A420" fill="#48A420" stroke-width="1"/>
  <path id="9" d="M 861.207,157.332 C 859.396,156.439 857.479,154.896 856.947,153.902 C 856.353,152.791 856.080,133.910 856.240,104.905 C 856.240,104.905 856.500,57.715 856.500,57.715 C 856.500,57.715 859.130,55.752 859.130,55.752 C 864.759,51.550 881.675,52.587 884.118,57.284 C 884.752,58.503 885.420,59.672 885.602,59.883 C 885.784,60.094 887.603,58.800 889.644,57.008 C 895.359,51.990 899.440,50.630 909,50.561 C 919.768,50.483 924.131,52.371 926.422,58.097 C 929.329,65.363 927.744,78.655 923.623,81.563 C 921.910,82.772 919.471,82.938 911,82.427 C 901.073,81.828 900.314,81.922 897.087,84.147 C 889.518,89.365 888.049,96.685 888.020,129.316 C 888.007,143.708 887.601,152.876 886.919,154.150 C 886.325,155.260 884.315,156.807 882.452,157.585 C 877.781,159.537 865.381,159.389 861.207,157.332" stroke="#48A420" fill="#48A420" stroke-width="1"/>
  <path id="9" d="M 274.225,156.996 C 272.424,155.898 270.511,153.845 269.975,152.434 C 268.529,148.631 268.681,61.795 270.139,58.595 C 271.802,54.944 276.769,53 284.433,53 C 292.659,53 297.364,54.870 299.492,58.985 C 299.492,58.985 301.117,62.127 301.117,62.127 C 301.117,62.127 304.928,58.684 304.928,58.684 C 310.391,53.749 318.810,50.801 329.038,50.242 C 342.822,49.489 353.710,53.145 362.570,61.501 C 364.610,63.425 366.589,65 366.966,65 C 367.343,65 368.716,63.867 370.018,62.481 C 380.315,51.520 400.391,47.053 417.054,52.016 C 430.460,56.008 440.921,66.671 445.570,81.078 C 448.126,88.999 448.984,146.710 446.630,152.344 C 444.587,157.234 440.332,159 430.597,159 C 421.410,159 418.570,157.983 416.004,153.775 C 414.140,150.718 414.008,148.721 414.004,123.799 C 414,92.785 413.391,88.545 408.155,83.046 C 398.392,72.793 380.827,77.160 377.044,90.781 C 376.450,92.919 376.009,106.101 376.006,121.782 C 376,152.750 375.591,155.020 369.568,157.536 C 365.097,159.404 352.970,159.433 348.548,157.585 C 342.679,155.133 342.548,154.413 342,121.470 C 341.506,91.802 341.470,91.380 338.973,86.470 C 333.445,75.597 318.163,73.725 308.727,82.763 C 303.698,87.580 303,92.495 303,123.134 C 303,141.772 302.625,151.728 301.861,153.405 C 300.071,157.334 295.298,159 285.849,158.996 C 279.269,158.993 276.806,158.570 274.225,156.996" stroke="#48A420" fill="#48A420" stroke-width="1"/>
  <path id="9" d="M 1138.500,158.055 C 1137.400,157.605 1135.600,156.237 1134.500,155.016 C 1132.667,152.981 1132.458,150.991 1132,131.148 C 1132,131.148 1131.500,109.500 1131.500,109.500 C 1131.500,109.500 1110.661,109 1110.661,109 C 1110.661,109 1089.823,108.500 1089.823,108.500 C 1089.823,108.500 1087.411,105.694 1087.411,105.694 C 1085.298,103.235 1085,101.900 1085,94.896 C 1085,87.628 1085.229,86.691 1087.532,84.557 C 1090.989,81.353 1094.569,80.861 1113.327,81.006 C 1122.222,81.075 1130.062,81.101 1130.750,81.065 C 1131.708,81.015 1132,76.136 1132,60.187 C 1132,60.187 1132,39.374 1132,39.374 C 1132,39.374 1135.061,36.442 1135.061,36.442 C 1137.813,33.806 1138.903,33.474 1145.861,33.158 C 1154.890,32.748 1159.886,34.371 1162.672,38.620 C 1164.259,41.040 1164.533,43.971 1164.750,60.871 C 1164.888,71.576 1165.222,80.556 1165.493,80.826 C 1166.043,81.376 1178.523,81.884 1193.194,81.954 C 1201.868,81.995 1203.174,82.246 1205.598,84.331 C 1207.767,86.196 1208.397,87.744 1208.757,92.088 C 1209.334,99.049 1207.589,105.590 1204.716,107.233 C 1203.241,108.076 1196.173,108.667 1183.587,109 C 1183.587,109 1164.674,109.500 1164.674,109.500 C 1164.674,109.500 1164.816,128.500 1164.816,128.500 C 1164.977,149.990 1164.326,153.202 1159.102,156.715 C 1156.275,158.616 1154.427,158.990 1148.102,158.937 C 1143.921,158.902 1139.600,158.505 1138.500,158.055" stroke="#48A420" fill="#48A420" stroke-width="1"/>
</svg>
